<?xml version="1.0" encoding="UTF-8"?>
<svg xmlns="http://www.w3.org/2000/svg" xmlns:xlink="http://www.w3.org/1999/xlink" width="600pt" height="600pt" viewBox="0 0 600 600" version="1.1">
<g id="surface916">
<path style=" stroke:none;fill-rule:nonzero;fill:rgb(0%,0%,0%);fill-opacity:1;" d="M 455.5625 455.5625 L 367.351562 462.601562 L 300 520 L 232.648438 462.601562 L 144.4375 455.5625 L 137.398438 367.351562 L 80 300 L 137.398438 232.648438 L 144.4375 144.4375 L 232.648438 137.398438 L 300 80 L 367.351562 137.398438 L 455.5625 144.4375 L 462.601562 232.648438 L 520 300 L 462.601562 367.351562 Z M 455.5625 455.5625 "/>
<path style=" stroke:none;fill-rule:nonzero;fill:rgb(40%,20%,60%);fill-opacity:1;" d="M 414.800781 171 L 310.800781 306.601562 L 313.121094 307.296875 L 315.695312 307.796875 L 318.519531 308.097656 L 321.597656 308.203125 L 323.207031 308.085938 L 325.246094 307.75 L 330.597656 306.398438 L 337.644531 304.144531 L 346.398438 301 L 346.40625 302.578125 L 346.238281 304.132812 L 345.890625 305.648438 L 345.371094 307.144531 L 344.664062 308.601562 L 343.785156 310.03125 L 342.726562 311.425781 L 341.496094 312.796875 L 338.488281 315.429688 L 334.769531 317.945312 L 330.335938 320.332031 L 325.199219 322.601562 L 320.824219 324.1875 L 316.519531 325.570312 L 312.269531 326.738281 L 308.09375 327.699219 L 303.972656 328.4375 L 299.917969 328.972656 L 295.925781 329.289062 L 292 329.402344 L 288.523438 331.179688 L 285.519531 333.320312 L 282.972656 335.824219 L 280.894531 338.699219 L 279.269531 341.925781 L 278.117188 345.519531 L 277.425781 349.476562 L 277.199219 353.800781 L 277.316406 355.003906 L 277.683594 356.136719 L 278.289062 357.191406 L 279.144531 358.171875 L 280.238281 359.066406 L 281.578125 359.886719 L 283.164062 360.628906 L 284.996094 361.296875 L 289.378906 362.386719 L 294.742188 363.171875 L 301.078125 363.640625 L 308.398438 363.800781 L 328.800781 363.800781 L 349.597656 364.203125 L 359.074219 363.96875 L 367.71875 363.277344 L 375.523438 362.117188 L 379.109375 361.367188 L 382.496094 360.5 L 385.660156 359.515625 L 388.625 358.414062 L 391.378906 357.195312 L 393.921875 355.871094 L 396.253906 354.425781 L 398.375 352.867188 L 400.289062 351.191406 L 402 349.402344 L 410.800781 351.800781 L 401.769531 368.574219 L 391.097656 389.300781 L 378.769531 413.972656 L 364.800781 442.601562 L 358.398438 442.601562 L 357.574219 440.34375 L 356.320312 438.398438 L 354.625 436.746094 L 352.496094 435.398438 L 349.925781 434.34375 L 346.917969 433.597656 L 343.472656 433.144531 L 339.597656 433 L 198.800781 433.800781 L 196.972656 434.035156 L 194.699219 434.75 L 191.96875 435.933594 L 188.800781 437.601562 L 183.394531 440.449219 L 181.742188 441.160156 L 180.800781 441.402344 L 179.539062 441.324219 L 178.371094 441.097656 L 177.285156 440.71875 L 176.296875 440.199219 L 175.386719 439.519531 L 174.570312 438.695312 L 173.835938 437.71875 L 173.199219 436.601562 L 267.199219 319.800781 L 263.753906 316.25 L 260.644531 312.824219 L 257.855469 309.5 L 255.398438 306.296875 L 253.253906 303.199219 L 251.445312 300.222656 L 249.957031 297.351562 L 248.800781 294.601562 L 255.320312 288.59375 L 262.898438 282.195312 L 271.519531 275.398438 L 281.199219 268.203125 L 281.894531 269.273438 L 282.394531 270.5 L 282.695312 271.875 L 282.800781 273.402344 L 282.648438 275.398438 L 282.199219 278.203125 L 281.746094 280.996094 L 281.597656 283 L 283.167969 286.847656 L 284.695312 290 L 286.167969 292.449219 L 287.597656 294.203125 L 294.84375 286.992188 L 301.195312 280.175781 L 306.640625 273.738281 L 311.195312 267.699219 L 314.84375 262.039062 L 316.328125 259.355469 L 317.59375 256.773438 L 318.628906 254.28125 L 319.441406 251.890625 L 320.03125 249.59375 L 320.398438 247.402344 L 311.199219 239.402344 L 311.375 239.492188 L 311.121094 239.570312 L 309.296875 239.699219 L 300.398438 239.800781 L 272.199219 239.402344 L 243.597656 239 L 239.496094 239.15625 L 235.605469 239.632812 L 231.917969 240.425781 L 228.445312 241.546875 L 225.167969 242.980469 L 222.105469 244.734375 L 219.246094 246.804688 L 216.597656 249.203125 L 211.980469 253.660156 L 208.34375 256.851562 L 205.679688 258.761719 L 204.714844 259.238281 L 204 259.402344 L 203.007812 259.320312 L 202.046875 259.074219 L 201.109375 258.664062 L 200.199219 258.101562 L 198.449219 256.472656 L 196.800781 254.203125 L 250.800781 166.601562 L 253.320312 168.375 L 255.894531 169.921875 L 258.519531 171.222656 L 261.195312 172.296875 L 263.917969 173.125 L 266.695312 173.722656 L 269.519531 174.078125 L 272.398438 174.203125 L 374.800781 174.203125 L 377.761719 174.0625 L 381.070312 173.652344 L 384.710938 172.960938 L 388.695312 172 L 393.011719 170.757812 L 397.667969 169.246094 L 408 165.402344 L 409.328125 165.484375 L 410.523438 165.746094 L 411.578125 166.183594 L 412.5 166.800781 L 413.277344 167.582031 L 413.921875 168.546875 L 414.425781 169.683594 Z M 426.800781 434.601562 Z M 160 340 L 151.515625 308.484375 L 120 300 L 151.515625 291.515625 L 160 260 L 168.484375 291.515625 L 200 300 L 168.484375 308.484375 Z M 440 340 L 431.515625 308.484375 L 400 300 L 431.515625 291.515625 L 440 260 L 448.484375 291.515625 L 480 300 L 448.484375 308.484375 Z M 300 160 L 293.636719 136.363281 L 270 130 L 293.636719 123.636719 L 300 100 L 306.363281 123.636719 L 330 130 L 306.363281 136.363281 Z M 300 500 L 293.636719 476.363281 L 270 470 L 293.636719 463.636719 L 300 440 L 306.363281 463.636719 L 330 470 L 306.363281 476.363281 Z M 300 500 "/>
<path style="fill:none;stroke-width:8;stroke-linecap:butt;stroke-linejoin:miter;stroke:rgb(58.4%,34.5%,69.8%);stroke-opacity:1;stroke-miterlimit:10;" d="M 462.632812 462.632812 L 370.414062 469.992188 L 300 530 L 229.585938 469.992188 L 137.367188 462.632812 L 130.007812 370.414062 L 70 300 L 130.007812 229.585938 L 137.367188 137.367188 L 229.585938 130.007812 L 300 70 L 370.414062 130.007812 L 462.632812 137.367188 L 469.992188 229.585938 L 530 300 L 469.992188 370.414062 Z M 462.632812 462.632812 "/>
<path style="fill:none;stroke-width:8;stroke-linecap:butt;stroke-linejoin:miter;stroke:rgb(79.6%,23.5%,20%);stroke-opacity:1;stroke-miterlimit:10;" d="M 476.777344 476.777344 L 376.535156 484.777344 L 300 550 L 223.464844 484.777344 L 123.222656 476.777344 L 115.222656 376.535156 L 50 300 L 115.222656 223.464844 L 123.222656 123.222656 L 223.464844 115.222656 L 300 50 L 376.535156 115.222656 L 476.777344 123.222656 L 484.777344 223.464844 L 550 300 L 484.777344 376.535156 Z M 476.777344 476.777344 "/>
<path style="fill:none;stroke-width:8;stroke-linecap:butt;stroke-linejoin:miter;stroke:rgb(22%,59.6%,14.9%);stroke-opacity:1;stroke-miterlimit:10;" d="M 490.917969 490.917969 L 382.660156 499.558594 L 300 570 L 217.339844 499.558594 L 109.082031 490.917969 L 100.441406 382.660156 L 30 300 L 100.441406 217.339844 L 109.082031 109.082031 L 217.339844 100.441406 L 300 30 L 382.660156 100.441406 L 490.917969 109.082031 L 499.558594 217.339844 L 570 300 L 499.558594 382.660156 Z M 490.917969 490.917969 "/>
<path style="fill:none;stroke-width:8;stroke-linecap:butt;stroke-linejoin:miter;stroke:rgb(25.1%,38.8%,84.7%);stroke-opacity:1;stroke-miterlimit:10;" d="M 505.0625 505.0625 L 388.78125 514.339844 L 300 590 L 211.21875 514.339844 L 94.9375 505.0625 L 85.660156 388.78125 L 10 300 L 85.660156 211.21875 L 94.9375 94.9375 L 211.21875 85.660156 L 300 10 L 388.78125 85.660156 L 505.0625 94.9375 L 514.339844 211.21875 L 590 300 L 514.339844 388.78125 Z M 505.0625 505.0625 "/>
</g>
</svg>
